<svg xmlns="http://www.w3.org/2000/svg" viewBox="0 0 512 512" width="512" height="512" fill="none">
  <path fill-rule="evenodd" fill="currentColor" d="m38.3 510.6c-10.1-2.5-20.7-9.5-25.9-18.3-7.7-11.9-7.4 4.6-7.4-235.8 0-232.6 0-223.2 5.6-234.4 3.5-6.7 12.7-15.1 20.7-18.6l6.7-3.5h219.3 219l7.7 3.9c9.1 4.5 16.1 11.9 20.7 21l2.8 6.7v224.9 224.6l-2.4 5.6c-4.6 10.2-16.9 21.1-26.7 23.9-5.6 1.7-433 1.7-440.1 0zm395.9-41.1c14.7-3.5 25.9-13.3 31.6-28l2.4-6.7 0.4-173.7c0.3-108.1 0-176.9-0.7-181.1-2.5-15.4-11.3-27.7-23.9-34l-7-3.5-180.4 0.3-180.4 0.4-6.3 3.1c-8 3.9-16.5 12.7-20.7 21.4l-3.1 6.7v181.4 181.4l3.8 7.8c2.1 4.2 5.6 9.8 8.1 12.6 4.6 4.9 15.4 11.2 23.5 12.6 2.8 0.7 81.4 1.1 174.8 1.1 150.9 0 170.5 0 177.9-1.8z"/>
  <path fill-rule="evenodd" fill="currentColor" d="m139.4 403.2c-13-4.2-23.5-14.7-27.4-27.7-1.4-4.2-1.4-24.6-1.4-119.3 0-107.4 0-114.4 2.1-120.7 2.8-9.2 8.5-17.2 15.8-21.5 11.6-7.7 3.2-7.3 126.4-7.7 111.5-0.3 112.2 0 120.3 2.5 7 2.1 9.1 3.5 15.5 9.5 4.9 4.9 7.7 9.1 9.8 14l2.8 7 0.3 111.3c0 75.1 0 114-1 119.3-0.7 4.5-2.5 10.5-4.2 13.7-4.6 8-13.7 16.4-21.4 19.3-7 2.4-7 2.4-119 2.4-105.3 0-112.6-0.3-118.6-2.1zm141.4-49.5c29.5-7.3 46.3-28.8 46.7-58.6 0-20-8.4-36.1-23.5-45.9-7.7-5.3-18.3-9.5-41.1-16.5-8.4-2.8-17.9-6.4-20.7-8.1-6.3-4.2-9.1-10.2-8.4-17.6 1.1-10.5 9.1-17.2 21.1-17.2 13.3 0 21.4 6.7 24.9 21.8l2.1 7.7 13-0.3c7.3-0.4 17.2-0.7 21.7-1.1l8.4-0.7v-4.2c0-7-4.5-23.2-8.4-30.9-4.9-9.4-15.8-20.3-25.2-24.5-8.1-4.2-20.8-7.4-29.2-7.4-9.1 0-30.5 3.2-37.2 6-13.7 4.9-26.6 17.9-32.3 31.9-2.4 6-2.8 8.8-2.8 22.5 0 15 0 15.7 3.9 23.5 4.6 9.8 13.3 18.6 23.9 24.2 4.5 2.1 17.9 7.3 29.8 11.2 13 4.2 23.5 8.4 26.3 10.5 5.6 4.2 8.4 9.5 8.4 17.9 0 7.4-3.1 12.7-9.8 16.5-3.9 2.5-6 2.8-13 2.5-16.1-1.1-24.5-8.8-28.4-27.4l-1.1-6h-8.4c-18.9 0-34.7 1.4-35.4 3.2-1.1 2.8 2.1 18.9 5.2 27 9.5 23.5 28.1 37.9 54.4 41.4 10.2 1.4 25.6 0.7 35.5-1.7z"/>
</svg>
