<svg version="1.2" xmlns="http://www.w3.org/2000/svg" viewBox="0 0 512 512" width="512" height="512"><style>.a{fill:#191718}.b{fill:#0f6}</style><path class="a" d="m78 473.8c-8.1-1.7-18.9-7.7-23.5-13-2.5-2.4-6-8-8.1-12.2l-3.5-7.8v-184.9-185l3.2-6.7c3.8-8.7 12.3-17.5 20.3-21.4l6.3-3.1 184-0.4 183.5-0.3 6.3 2.8c13 5.9 22.5 18.9 25 34.4 0.7 4.9 1 70.9 0.7 184.9l-0.4 177.3-2.4 6.7c-3.6 9.4-9.2 16.4-16.9 21.7-13 8.4-2.1 8.1-196.2 8.1-95.1 0-175.1-0.7-178.3-1.1zm295.5-74.4c8.1-3.1 17.2-11.2 21.4-19.3 1.8-3.1 3.6-9.1 4.3-13.7 1-5.2 1.4-43.1 1-115.8l-0.3-107.7-2.8-7.1c-2.2-4.9-5-9.1-9.9-14-6.3-6.3-8.4-7.4-15.4-9.5-8.1-2.4-9.1-2.8-116.9-2.4-119.3 0.3-111.3 0-123.2 7.3-7 4.6-12.6 12.3-15.4 21.8-2.1 6.3-2.1 13-2.1 117.2 0 91.6 0 111.6 1.4 115.8 3.8 13 14.4 23.6 27.3 27.8 6 1.7 13.4 2.1 115.2 2.1 108.4 0 108.4 0 115.4-2.5z"/><path class="a" d="m242.3 359.1c-30.9-4.6-51.6-23.9-57.9-54.4-2.1-9.2-2.5-21.8-0.7-22.5 0.3-0.7 11.9-1.1 25.2-1.8l24.2-0.7 1.4 6.4c1.5 7.7 5.3 15.7 8.5 19.3 3.5 3.8 10.5 7.3 16.1 8 6.3 0.7 13-2.8 16.9-8.7 3.1-4.6 3.5-8.5 0.7-13.7-3.2-6.7-9.5-10.2-32.7-17.9-11.9-3.9-25.2-9.2-29.8-11.3-10.5-5.6-19.3-14.4-23.9-24.2l-3.8-8.1v-18.9c0-17.2 0.3-20 2.8-25.6 5.6-14.4 18.6-27.4 32.3-32.3 7.7-2.8 28.4-6 40.7-6 25.9 0.4 47.4 11.9 57.9 32.3 4.6 8.8 8.4 23.9 8.4 34v7.8l-8.4 0.7c-4.6 0.3-16.2 1-25.3 1l-16.5 0.4-1.7-7.7c-2.8-10.2-7.1-16.5-13.4-19.7-6.3-2.8-10.2-2.8-15.8 0-8.4 4.2-11.9 11.6-8.7 18.3 3.1 5.9 9.8 9.8 27.7 15.4 22.8 7 33.3 11.2 41.1 16.5 11.2 7 17.9 16.8 21.4 30.5 2.4 8.8 2.4 29.2 0 38.6-5 21.4-20.7 36.5-44.6 42.5-9.1 2.1-31.3 3.2-42.1 1.8z"/><path class="b" d="m38.3 510.7c-10.1-2.5-20.7-9.5-25.9-18.3-7.7-11.9-7.4 4.6-7.4-235.8 0-232.7 0-223.3 5.6-234.5 3.5-6.7 12.7-15.1 20.7-18.6l6.7-3.5h219.4 219l7.7 3.9c9.1 4.5 16.1 11.9 20.7 21l2.8 6.7v225 224.6l-2.4 5.6c-4.6 10.2-16.9 21.1-26.7 23.9-5.6 1.7-433.1 1.7-440.2 0zm396-41.1c14.7-3.5 25.9-13.3 31.5-28.1l2.5-6.6 0.4-173.8c0.3-108.1 0-176.9-0.7-181.1-2.5-15.4-11.3-27.7-23.9-34l-7-3.5-180.4 0.3-180.4 0.4-6.4 3.1c-8 3.9-16.5 12.7-20.7 21.4l-3.1 6.7v181.5 181.4l3.8 7.8c2.1 4.2 5.6 9.8 8.1 12.6 4.6 4.9 15.4 11.2 23.5 12.6 2.8 0.7 81.4 1.1 174.8 1.1 150.9 0 170.6 0 178-1.8z"/><path class="b" d="m139.4 403.3c-13-4.2-23.5-14.8-27.3-27.7-1.5-4.3-1.5-24.6-1.5-119.4 0-107.4 0-114.4 2.2-120.7 2.8-9.1 8.4-17.2 15.7-21.4 11.6-7.8 3.2-7.4 126.4-7.8 111.6-0.3 112.3 0 120.4 2.5 7 2.1 9.1 3.5 15.4 9.5 4.9 4.9 7.8 9.1 9.9 14l2.8 7 0.3 111.3c0 75.1 0 114.1-1 119.3-0.7 4.6-2.5 10.6-4.2 13.7-4.6 8.1-13.7 16.5-21.5 19.3-7 2.5-7 2.5-118.9 2.5-105.3 0-112.7-0.4-118.7-2.1zm141.5-49.5c29.5-7.4 46.3-28.8 46.7-58.6 0-20-8.5-36.2-23.6-46-7.7-5.3-18.2-9.5-41-16.5-8.4-2.8-17.9-6.3-20.7-8.1-6.3-4.2-9.2-10.1-8.5-17.5 1.1-10.5 9.2-17.2 21.1-17.2 13.3 0 21.4 6.7 24.9 21.7l2.1 7.8 13-0.4c7.4-0.3 17.2-0.7 21.8-1l8.4-0.7v-4.3c0-7-4.6-23.1-8.4-30.8-4.9-9.5-15.8-20.4-25.3-24.6-8.1-4.2-20.7-7.4-29.1-7.4-9.2 0-30.6 3.2-37.2 6-13.7 4.9-26.7 17.9-32.3 31.9-2.5 6-2.8 8.8-2.8 22.5 0 15.1 0 15.8 3.8 23.5 4.6 9.8 13.4 18.6 23.9 24.2 4.6 2.1 17.9 7.4 29.8 11.3 13 4.2 23.5 8.4 26.4 10.5 5.6 4.2 8.4 9.5 8.4 17.9 0 7.4-3.2 12.6-9.8 16.5-3.9 2.4-6 2.8-13 2.4-16.2-1-24.6-8.7-28.5-27.3l-1-6h-8.4c-19 0-34.8 1.4-35.5 3.2-1 2.8 2.1 18.9 5.3 27 9.5 23.5 28.1 37.9 54.4 41.4 10.2 1.4 25.6 0.7 35.4-1.8z"/></svg>